<?xml version="1.0" encoding="UTF-8" standalone="no"?>
<svg
   xmlns:dc="http://purl.org/dc/elements/1.1/"
   xmlns:cc="http://creativecommons.org/ns#"
   xmlns:rdf="http://www.w3.org/1999/02/22-rdf-syntax-ns#"
   xmlns:svg="http://www.w3.org/2000/svg"
   xmlns="http://www.w3.org/2000/svg"
   xmlns:sodipodi="http://sodipodi.sourceforge.net/DTD/sodipodi-0.dtd"
   xmlns:inkscape="http://www.inkscape.org/namespaces/inkscape"
   viewBox="0 0 176 64"
   height="64"
   width="176"
   xml:space="preserve"
   id="svg2"
   version="1.1"
   sodipodi:docname="hipnoedu.logo.std.h.b.svg"
   inkscape:version="0.92.3 (2405546, 2018-03-11)"><sodipodi:namedview
     pagecolor="#ffffff"
     bordercolor="#666666"
     borderopacity="1"
     objecttolerance="10"
     gridtolerance="10"
     guidetolerance="10"
     inkscape:pageopacity="0"
     inkscape:pageshadow="2"
     inkscape:window-width="1920"
     inkscape:window-height="1057"
     id="namedview166"
     showgrid="false"
     inkscape:zoom="6.9505383"
     inkscape:cx="89.792344"
     inkscape:cy="40.99873"
     inkscape:window-x="-8"
     inkscape:window-y="-8"
     inkscape:window-maximized="1"
     inkscape:current-layer="g4166" /><metadata
     id="metadata8"><rdf:RDF><cc:Work
         rdf:about=""><dc:format>image/svg+xml</dc:format><dc:type
           rdf:resource="http://purl.org/dc/dcmitype/StillImage" /><dc:title /></cc:Work></rdf:RDF></metadata><defs
     id="defs6"><clipPath
       id="clipPath18"
       clipPathUnits="userSpaceOnUse"><path
         id="path16"
         d="M 0,595.276 H 841.89 V 0 H 0 Z" /></clipPath></defs><g
     transform="matrix(1.3333333,0,0,-1.3333333,0,63.999975)"
     id="g10"><g
       id="g12"><g
         clip-path="url(#clipPath18)"
         id="g14"><g
           id="g4166"
           transform="matrix(0.43156986,0,0,0.43156986,-46.948698,-144.69666)"><g
             id="g183"
             transform="matrix(1.1575782,0,0,1.1575782,-51.091659,-81.572114)"
             style="fill:#000000;fill-opacity:1"><g
               transform="translate(235.4766,394.3908)"
               id="g20"
               style="fill:#000000;fill-opacity:1"><path
                 id="path22"
                 style="fill:#000000;fill-opacity:1;fill-rule:nonzero;stroke:none"
                 d="m 0,0 h -4.796 v 10.524 c 0,1.479 -0.275,2.571 -0.824,3.275 -0.549,0.704 -1.324,1.056 -2.326,1.056 -0.43,0 -0.884,-0.096 -1.361,-0.286 -0.477,-0.192 -0.93,-0.46 -1.36,-0.806 -0.43,-0.346 -0.823,-0.758 -1.181,-1.235 -0.358,-0.477 -0.621,-1.002 -0.788,-1.575 V 0 h -4.796 v 26.13 h 4.796 V 15.285 c 0.692,1.216 1.629,2.153 2.81,2.81 1.181,0.655 2.488,0.984 3.92,0.984 1.217,0 2.207,-0.209 2.971,-0.626 0.763,-0.418 1.36,-0.973 1.789,-1.665 0.43,-0.692 0.729,-1.48 0.896,-2.363 C -0.084,13.542 0,12.636 0,11.705 Z"
                 inkscape:connector-curvature="0" /></g><path
               id="path24"
               style="fill:#000000;fill-opacity:1;fill-rule:nonzero;stroke:none"
               d="m 240.559,413.148 h 4.796 v -18.757 h -4.796 z m 0,7.373 h 4.796 v -4.761 h -4.796 z"
               inkscape:connector-curvature="0" /><g
               transform="translate(260.2104,398.1135)"
               id="g26"
               style="fill:#000000;fill-opacity:1"><path
                 id="path28"
                 style="fill:#000000;fill-opacity:1;fill-rule:nonzero;stroke:none"
                 d="m 0,0 c 0.716,0 1.378,0.155 1.987,0.465 0.608,0.31 1.127,0.728 1.556,1.253 0.43,0.525 0.764,1.134 1.003,1.826 0.238,0.692 0.358,1.408 0.358,2.147 0,0.788 -0.132,1.522 -0.394,2.202 -0.263,0.68 -0.626,1.271 -1.092,1.772 -0.465,0.501 -1.014,0.895 -1.646,1.181 -0.633,0.286 -1.319,0.429 -2.059,0.429 -0.453,0 -0.919,-0.077 -1.396,-0.232 C -2.16,10.887 -2.602,10.667 -3.007,10.381 -3.413,10.094 -3.776,9.76 -4.099,9.378 -4.421,8.997 -4.666,8.579 -4.833,8.125 V 3.723 C -4.403,2.649 -3.747,1.76 -2.864,1.056 -1.981,0.352 -1.026,0 0,0 m 1.611,-4.081 c -1.48,0 -2.769,0.329 -3.866,0.985 -1.098,0.656 -1.957,1.545 -2.578,2.666 v -10.917 h -4.796 v 26.381 h 4.188 v -3.221 c 0.692,1.097 1.587,1.962 2.685,2.595 1.097,0.632 2.362,0.948 3.794,0.948 1.265,0 2.434,-0.256 3.508,-0.77 C 5.62,14.073 6.544,13.381 7.32,12.511 8.095,11.639 8.704,10.613 9.146,9.432 9.587,8.251 9.808,7.003 9.808,5.691 9.808,4.331 9.605,3.054 9.199,1.861 8.793,0.668 8.227,-0.37 7.499,-1.253 6.771,-2.136 5.906,-2.828 4.904,-3.329 3.902,-3.83 2.804,-4.081 1.611,-4.081"
                 inkscape:connector-curvature="0" /></g><g
               transform="translate(291.6025,394.3908)"
               id="g30"
               style="fill:#000000;fill-opacity:1"><path
                 id="path32"
                 style="fill:#000000;fill-opacity:1;fill-rule:nonzero;stroke:none"
                 d="m 0,0 h -4.796 v 10.524 c 0,1.503 -0.264,2.601 -0.788,3.293 -0.525,0.692 -1.253,1.038 -2.184,1.038 -0.477,0 -0.966,-0.096 -1.467,-0.286 -0.501,-0.192 -0.973,-0.46 -1.414,-0.806 -0.442,-0.346 -0.841,-0.758 -1.199,-1.235 -0.358,-0.477 -0.621,-1.002 -0.788,-1.575 V 0 h -4.796 v 18.757 h 4.331 v -3.472 c 0.692,1.193 1.694,2.123 3.007,2.792 1.312,0.668 2.792,1.002 4.438,1.002 1.169,0 2.124,-0.215 2.864,-0.644 0.739,-0.43 1.312,-0.991 1.718,-1.683 0.406,-0.692 0.686,-1.48 0.842,-2.362 C -0.078,13.506 0,12.612 0,11.705 Z"
                 inkscape:connector-curvature="0" /></g><g
               transform="translate(300.4434,403.7336)"
               id="g34"
               style="fill:#000000;fill-opacity:1"><path
                 id="path36"
                 style="fill:#000000;fill-opacity:1;fill-rule:nonzero;stroke:none"
                 d="m 0,0 c 0,-0.836 0.125,-1.593 0.376,-2.273 0.25,-0.68 0.596,-1.271 1.038,-1.772 0.441,-0.501 0.961,-0.89 1.557,-1.163 0.596,-0.275 1.24,-0.412 1.933,-0.412 0.692,0 1.336,0.137 1.933,0.412 0.596,0.273 1.115,0.662 1.557,1.163 0.441,0.501 0.788,1.097 1.038,1.79 0.251,0.692 0.376,1.455 0.376,2.291 0,0.811 -0.125,1.562 -0.376,2.255 C 9.182,2.982 8.835,3.579 8.394,4.081 7.952,4.582 7.433,4.969 6.837,5.244 6.24,5.518 5.596,5.655 4.904,5.655 4.211,5.655 3.567,5.512 2.971,5.226 2.375,4.939 1.855,4.546 1.414,4.044 0.972,3.543 0.626,2.947 0.376,2.255 0.125,1.562 0,0.811 0,0 m 4.904,-9.701 c -1.528,0 -2.899,0.263 -4.116,0.788 -1.217,0.524 -2.25,1.235 -3.097,2.13 -0.847,0.894 -1.498,1.927 -1.95,3.096 -0.454,1.169 -0.68,2.398 -0.68,3.687 0,1.312 0.226,2.553 0.68,3.723 0.452,1.169 1.103,2.201 1.95,3.096 0.847,0.895 1.88,1.604 3.097,2.13 1.217,0.524 2.588,0.787 4.116,0.787 1.527,0 2.893,-0.263 4.098,-0.787 1.206,-0.526 2.232,-1.235 3.079,-2.13 0.847,-0.895 1.497,-1.927 1.951,-3.096 0.453,-1.17 0.68,-2.411 0.68,-3.723 0,-1.289 -0.227,-2.518 -0.68,-3.687 -0.454,-1.169 -1.098,-2.202 -1.933,-3.096 -0.836,-0.895 -1.861,-1.606 -3.078,-2.13 -1.217,-0.525 -2.59,-0.788 -4.117,-0.788"
                 inkscape:connector-curvature="0" /></g><g
               transform="translate(332.8379,405.344)"
               id="g38"
               style="fill:#000000;fill-opacity:1"><path
                 id="path40"
                 style="fill:#000000;fill-opacity:1;fill-rule:nonzero;stroke:none"
                 d="M 0,0 C -0.12,1.408 -0.639,2.536 -1.557,3.383 -2.476,4.229 -3.592,4.654 -4.904,4.654 -5.548,4.654 -6.151,4.54 -6.712,4.313 -7.272,4.086 -7.768,3.771 -8.197,3.365 -8.627,2.959 -8.979,2.47 -9.253,1.897 -9.528,1.325 -9.689,0.692 -9.736,0 Z m -4.868,-11.311 c -1.504,0 -2.864,0.257 -4.081,0.769 -1.217,0.513 -2.255,1.211 -3.114,2.095 -0.859,0.882 -1.521,1.908 -1.987,3.078 -0.465,1.169 -0.698,2.398 -0.698,3.687 0,1.336 0.227,2.595 0.681,3.776 0.452,1.181 1.109,2.219 1.968,3.114 0.859,0.896 1.903,1.605 3.132,2.13 1.229,0.525 2.607,0.788 4.134,0.788 1.527,0 2.894,-0.263 4.099,-0.788 C 0.471,6.813 1.497,6.109 2.345,5.227 3.191,4.343 3.835,3.317 4.277,2.148 4.719,0.979 4.939,-0.239 4.939,-1.503 4.939,-1.813 4.934,-2.112 4.922,-2.398 4.91,-2.685 4.88,-2.923 4.833,-3.114 H -9.665 c 0.072,-0.74 0.251,-1.396 0.537,-1.969 0.287,-0.572 0.656,-1.062 1.11,-1.467 0.453,-0.407 0.966,-0.716 1.539,-0.931 0.573,-0.215 1.169,-0.322 1.79,-0.322 0.954,0 1.855,0.233 2.702,0.698 0.847,0.465 1.426,1.079 1.737,1.843 L 3.866,-6.407 C 3.173,-7.839 2.07,-9.015 0.555,-9.933 c -1.516,-0.919 -3.324,-1.378 -5.423,-1.378"
                 inkscape:connector-curvature="0" /></g><g
               transform="translate(350.6279,398.1135)"
               id="g42"
               style="fill:#000000;fill-opacity:1"><path
                 id="path44"
                 style="fill:#000000;fill-opacity:1;fill-rule:nonzero;stroke:none"
                 d="M 0,0 C 0.453,0 0.918,0.077 1.396,0.233 1.873,0.388 2.314,0.608 2.72,0.895 3.126,1.181 3.49,1.515 3.812,1.897 4.134,2.279 4.378,2.696 4.546,3.15 V 7.625 C 4.354,8.149 4.086,8.632 3.74,9.074 3.394,9.516 3,9.897 2.559,10.22 2.117,10.542 1.652,10.798 1.163,10.989 0.674,11.18 0.19,11.275 -0.287,11.275 -1.002,11.275 -1.665,11.12 -2.273,10.81 -2.882,10.5 -3.401,10.077 -3.83,9.54 -4.26,9.002 -4.594,8.388 -4.833,7.696 -5.071,7.003 -5.19,6.288 -5.19,5.548 -5.19,4.761 -5.06,4.033 -4.797,3.365 -4.535,2.696 -4.176,2.112 -3.723,1.611 -3.27,1.11 -2.727,0.716 -2.094,0.43 -1.462,0.143 -0.764,0 0,0 m -1.253,-4.081 c -1.289,0 -2.482,0.251 -3.58,0.752 -1.098,0.501 -2.04,1.193 -2.827,2.076 -0.788,0.883 -1.403,1.915 -1.844,3.097 -0.442,1.181 -0.662,2.451 -0.662,3.812 0,1.36 0.208,2.624 0.626,3.794 0.417,1.169 0.997,2.196 1.736,3.078 0.74,0.883 1.623,1.576 2.649,2.076 1.026,0.501 2.148,0.752 3.365,0.752 1.384,0 2.631,-0.334 3.741,-1.002 1.11,-0.668 1.974,-1.539 2.595,-2.613 V 22.408 H 9.342 V 1.79 C 9.342,1.289 9.426,0.931 9.593,0.716 9.76,0.501 10.046,0.381 10.452,0.358 v -4.081 c -0.836,-0.166 -1.515,-0.25 -2.04,-0.25 -0.859,0 -1.563,0.215 -2.112,0.644 -0.55,0.43 -0.859,0.99 -0.931,1.683 L 5.262,-0.465 C 4.569,-1.659 3.633,-2.559 2.452,-3.168 1.271,-3.776 0.036,-4.081 -1.253,-4.081"
                 inkscape:connector-curvature="0" /></g><g
               transform="translate(371.3169,394.0329)"
               id="g46"
               style="fill:#000000;fill-opacity:1"><path
                 id="path48"
                 style="fill:#000000;fill-opacity:1;fill-rule:nonzero;stroke:none"
                 d="M 0,0 C -1.933,0 -3.4,0.62 -4.403,1.861 -5.405,3.102 -5.906,4.94 -5.906,7.374 v 11.741 h 4.797 V 8.412 c 0,-2.888 1.038,-4.331 3.114,-4.331 0.931,0 1.831,0.28 2.702,0.841 0.871,0.56 1.581,1.414 2.13,2.559 v 11.634 h 4.797 V 5.871 c 0,-0.502 0.089,-0.86 0.268,-1.075 0.179,-0.214 0.471,-0.334 0.877,-0.358 V 0.358 C 12.301,0.263 11.902,0.203 11.58,0.179 11.258,0.155 10.965,0.143 10.703,0.143 9.844,0.143 9.146,0.34 8.609,0.734 8.072,1.127 7.755,1.67 7.66,2.362 L 7.553,3.866 C 6.717,2.577 5.644,1.611 4.332,0.966 3.019,0.322 1.575,0 0,0"
                 inkscape:connector-curvature="0" /></g></g><g
             id="g189"
             transform="translate(-6.951366)"
             style="fill:#000000;fill-opacity:1"><g
               transform="translate(195.2461,418.0837)"
               id="g50"
               style="fill:#000000;fill-opacity:1"><path
                 id="path52"
                 style="fill:#000000;fill-opacity:1;fill-rule:nonzero;stroke:none"
                 d="M 0,0 C -0.014,3.424 -2.827,6.214 -6.251,6.2 L -22.556,6.132 c -2.182,-0.009 -4.103,-1.157 -5.208,-2.873 10.135,-6.667 16.857,-18.09 16.91,-31.068 0.003,-0.636 -0.023,-1.266 -0.052,-1.895 -4.417,-4.151 -10.338,-6.709 -16.851,-6.735 -7.625,-0.032 -14.467,3.412 -19.05,8.841 -10e-4,0.129 -0.007,0.257 -0.007,0.387 -0.071,17.04 8.631,32.112 21.866,40.977 -1.47,2.24 -4.004,3.727 -6.869,3.715 l -21.41,-0.089 c -4.496,-0.018 -8.159,-3.712 -8.14,-8.208 l 0.302,-72.911 c 0.018,-4.495 3.712,-8.159 8.208,-8.14 l 21.41,0.089 c 2.864,0.011 5.386,1.519 6.838,3.772 -8.762,5.764 -15.58,14.235 -19.237,24.214 l 29.515,0.122 c -2.91,-6.232 -7.493,-11.54 -13.175,-15.346 1.119,-1.707 3.049,-2.838 5.231,-2.83 l 16.305,0.068 c 3.425,0.014 6.214,2.827 6.2,6.251 z"
                 inkscape:connector-curvature="0" /></g><g
               transform="translate(176.6685,399.4172)"
               id="g54"
               style="fill:#000000;fill-opacity:1"><path
                 id="path56"
                 style="fill:#000000;fill-opacity:1;fill-rule:nonzero;stroke:none"
                 d="m 0,0 c 0.024,-5.77 -4.634,-10.466 -10.403,-10.49 -5.77,-0.024 -10.466,4.634 -10.49,10.404 -0.024,5.769 4.634,10.465 10.403,10.489 C -4.72,10.427 -0.024,5.77 0,0"
                 inkscape:connector-curvature="0" /></g></g></g></g></g></g></svg>