<?xml version="1.0" encoding="UTF-8" standalone="no"?>
<svg
   xmlns:dc="http://purl.org/dc/elements/1.1/"
   xmlns:cc="http://creativecommons.org/ns#"
   xmlns:rdf="http://www.w3.org/1999/02/22-rdf-syntax-ns#"
   xmlns:svg="http://www.w3.org/2000/svg"
   xmlns="http://www.w3.org/2000/svg"
   xmlns:sodipodi="http://sodipodi.sourceforge.net/DTD/sodipodi-0.dtd"
   xmlns:inkscape="http://www.inkscape.org/namespaces/inkscape"
   width="24"
   height="24"
   viewBox="0 0 24 24"
   version="1.1"
   id="svg4"
   sodipodi:docname="iconmonstr.instagram.svg"
   inkscape:version="0.92.3 (2405546, 2018-03-11)">
  <metadata
     id="metadata10">
    <rdf:RDF>
      <cc:Work
         rdf:about="">
        <dc:format>image/svg+xml</dc:format>
        <dc:type
           rdf:resource="http://purl.org/dc/dcmitype/StillImage" />
      </cc:Work>
    </rdf:RDF>
  </metadata>
  <defs
     id="defs8">
    <clipPath
       clipPathUnits="userSpaceOnUse"
       id="clipPath4524">
      <rect
         style="fill:#1ceae4;fill-opacity:1"
         id="rect4526"
         width="24"
         height="24"
         x="-3.5527137e-015"
         y="-24"
         ry="3"
         transform="scale(1,-1)" />
    </clipPath>
  </defs>
  <sodipodi:namedview
     pagecolor="#ffffff"
     bordercolor="#666666"
     borderopacity="1"
     objecttolerance="10"
     gridtolerance="10"
     guidetolerance="10"
     inkscape:pageopacity="0"
     inkscape:pageshadow="2"
     inkscape:window-width="1920"
     inkscape:window-height="1057"
     id="namedview6"
     showgrid="false"
     inkscape:zoom="9.8333333"
     inkscape:cx="-4.5254237"
     inkscape:cy="12"
     inkscape:window-x="-8"
     inkscape:window-y="-8"
     inkscape:window-maximized="1"
     inkscape:current-layer="svg4" />
  <path
     d="M14.667 12c0 1.473-1.194 2.667-2.667 2.667-1.473 0-2.667-1.193-2.667-2.667 0-1.473 1.194-2.667 2.667-2.667 1.473 0 2.667 1.194 2.667 2.667zm3.846-3.232c.038.843.046 1.096.046 3.232s-.008 2.389-.046 3.233c-.1 2.15-1.109 3.181-3.279 3.279-.844.038-1.097.047-3.234.047-2.136 0-2.39-.008-3.232-.046-2.174-.099-3.181-1.132-3.279-3.279-.039-.845-.048-1.098-.048-3.234s.009-2.389.047-3.232c.099-2.152 1.109-3.181 3.279-3.279.844-.039 1.097-.047 3.233-.047s2.39.008 3.233.046c2.168.099 3.18 1.128 3.28 3.28zm-2.405 3.232c0-2.269-1.84-4.108-4.108-4.108-2.269 0-4.108 1.839-4.108 4.108 0 2.269 1.84 4.108 4.108 4.108 2.269 0 4.108-1.839 4.108-4.108zm1.122-4.27c0-.53-.43-.96-.96-.96s-.96.43-.96.96.43.96.96.96c.531 0 .96-.43.96-.96zm6.77-7.73v24h-24v-24h24zm-4 12c0-2.172-.009-2.445-.048-3.298-.131-2.902-1.745-4.52-4.653-4.653-.854-.04-1.126-.049-3.299-.049s-2.444.009-3.298.048c-2.906.133-4.52 1.745-4.654 4.653-.039.854-.048 1.127-.048 3.299 0 2.173.009 2.445.048 3.298.134 2.906 1.746 4.521 4.654 4.654.854.039 1.125.048 3.298.048s2.445-.009 3.299-.048c2.902-.133 4.522-1.745 4.653-4.654.039-.853.048-1.125.048-3.298z"
     id="path2"
     style="fill:#1ceae4;fill-opacity:1"
     clip-path="url(#clipPath4524)" />
</svg>
