<?xml version="1.0" encoding="UTF-8" standalone="no"?>
<svg
   xmlns:dc="http://purl.org/dc/elements/1.1/"
   xmlns:cc="http://creativecommons.org/ns#"
   xmlns:rdf="http://www.w3.org/1999/02/22-rdf-syntax-ns#"
   xmlns:svg="http://www.w3.org/2000/svg"
   xmlns="http://www.w3.org/2000/svg"
   xmlns:sodipodi="http://sodipodi.sourceforge.net/DTD/sodipodi-0.dtd"
   xmlns:inkscape="http://www.inkscape.org/namespaces/inkscape"
   width="24"
   height="24"
   viewBox="0 0 24 24"
   version="1.1"
   id="svg4"
   sodipodi:docname="iconmonstr.whatsapp.b.svg"
   inkscape:version="0.92.3 (2405546, 2018-03-11)">
  <metadata
     id="metadata10">
    <rdf:RDF>
      <cc:Work
         rdf:about="">
        <dc:format>image/svg+xml</dc:format>
        <dc:type
           rdf:resource="http://purl.org/dc/dcmitype/StillImage" />
      </cc:Work>
    </rdf:RDF>
  </metadata>
  <defs
     id="defs8">
    <clipPath
       clipPathUnits="userSpaceOnUse"
       id="clipPath3717">
      <rect
         id="rect3719"
         width="24"
         height="24"
         x="-1.7763568e-15"
         y="0"
         ry="4" />
    </clipPath>
  </defs>
  <sodipodi:namedview
     pagecolor="#ffffff"
     bordercolor="#666666"
     borderopacity="1"
     objecttolerance="10"
     gridtolerance="10"
     guidetolerance="10"
     inkscape:pageopacity="0"
     inkscape:pageshadow="2"
     inkscape:window-width="640"
     inkscape:window-height="480"
     id="namedview6"
     showgrid="false"
     inkscape:zoom="9.8333333"
     inkscape:cx="12"
     inkscape:cy="12"
     inkscape:window-x="0"
     inkscape:window-y="22"
     inkscape:window-maximized="0"
     inkscape:current-layer="svg4" />
  <path
     d="M12.036 5.339c-3.635 0-6.591 2.956-6.593 6.589-.001 1.483.434 2.594 1.164 3.756l-.666 2.432 2.494-.654c1.117.663 2.184 1.061 3.595 1.061 3.632 0 6.591-2.956 6.592-6.59.003-3.641-2.942-6.593-6.586-6.594zm3.876 9.423c-.165.463-.957.885-1.337.942-.341.051-.773.072-1.248-.078-.288-.091-.657-.213-1.129-.417-1.987-.858-3.285-2.859-3.384-2.991-.099-.132-.809-1.074-.809-2.049 0-.975.512-1.454.693-1.653.182-.2.396-.25.528-.25l.38.007c.122.006.285-.046.446.34.165.397.561 1.372.611 1.471.049.099.083.215.016.347-.066.132-.099.215-.198.33l-.297.347c-.099.099-.202.206-.087.404.116.198.513.847 1.102 1.372.757.675 1.395.884 1.593.983.198.099.314.083.429-.05.116-.132.495-.578.627-.777s.264-.165.446-.099 1.156.545 1.354.645c.198.099.33.149.38.231.049.085.049.482-.116.945zm-15.912-14.762v24h24v-24h-24zm12.033 19.862c-1.327 0-2.634-.333-3.792-.965l-4.203 1.103 1.125-4.108c-.694-1.202-1.059-2.566-1.058-3.964.002-4.372 3.558-7.928 7.928-7.928 2.121.001 4.112.827 5.609 2.325s2.321 3.491 2.32 5.609c-.002 4.372-3.559 7.928-7.929 7.928z"
     id="path2"
     clip-path="url(#clipPath3717)" />
</svg>
