<?xml version="1.0" encoding="utf-8"?>
<!-- Generator: Adobe Illustrator 16.0.0, SVG Export Plug-In . SVG Version: 6.00 Build 0)  -->
<!DOCTYPE svg PUBLIC "-//W3C//DTD SVG 1.1//EN" "http://www.w3.org/Graphics/SVG/1.1/DTD/svg11.dtd">
<svg version="1.1"
	 id="svg4" xmlns:rdf="http://www.w3.org/1999/02/22-rdf-syntax-ns#" xmlns:cc="http://creativecommons.org/ns#" xmlns:svg="http://www.w3.org/2000/svg" xmlns:dc="http://purl.org/dc/elements/1.1/" xmlns:inkscape="http://www.inkscape.org/namespaces/inkscape" xmlns:sodipodi="http://sodipodi.sourceforge.net/DTD/sodipodi-0.dtd" inkscape:version="0.92.3 (2405546, 2018-03-11)" sodipodi:docname="iconmonstr.facebook.svg"
	 xmlns="http://www.w3.org/2000/svg" xmlns:xlink="http://www.w3.org/1999/xlink" x="0px" y="0px" width="24px" height="24px"
	 viewBox="0 0 24 24" enable-background="new 0 0 24 24" xml:space="preserve">
<sodipodi:namedview  gridtolerance="10" guidetolerance="10" showgrid="false" pagecolor="#ffffff" borderopacity="1" bordercolor="#666666" objecttolerance="10" id="namedview6" inkscape:current-layer="svg4" inkscape:window-maximized="1" inkscape:window-y="-8" inkscape:window-x="-8" inkscape:window-height="1057" inkscape:window-width="1920" inkscape:pageshadow="2" inkscape:pageopacity="0" inkscape:cy="12" inkscape:cx="-4.5254237" inkscape:zoom="9.8333333">
	</sodipodi:namedview>
<g>
	<defs>
		<path id="SVGID_1_" d="M4,0h16c2.209,0,4,1.791,4,4v16c0,2.209-1.791,4-4,4H4c-2.209,0-4-1.791-4-4V4C0,1.791,1.791,0,4,0z"/>
	</defs>
	<clipPath id="SVGID_2_">
		<use xlink:href="#SVGID_1_"  overflow="visible"/>
	</clipPath>
	<path id="path2" clip-path="url(#SVGID_2_)" fill="#1CEAE4" d="M0,0v24h24V0H0z"/>
</g>
<g>
	<path fill="#FFFFFF" d="M9.039,16.707c-0.515-0.399-2.47-7.053-2.186-7.714c0.285-0.661,4.359-2.557,5.134-2.523
		c0.775,0.034,4.835,1.961,5.136,2.534c0.301,0.573-1.659,7.319-2.186,7.703C14.41,17.091,9.554,17.106,9.039,16.707z"/>
	<path fill="#FFFFFF" d="M11.945,2.086c-5.358,0-9.701,4.343-9.701,9.701c0,5.358,4.343,9.701,9.701,9.701
		c5.358,0,9.701-4.343,9.701-9.701C21.646,6.429,17.304,2.086,11.945,2.086z M12.119,18.341c-3.676,0-6.656-2.979-6.656-6.655
		s2.98-6.655,6.656-6.655c3.675,0,6.655,2.979,6.655,6.655S15.794,18.341,12.119,18.341z"/>
</g>
</svg>
